:SAMPLES-PER-SECOND 30
:FULLY-SPECIFIED
:DEGREES
291
root  26.228 43.6564 -37.4832 10.4026 17.512 4.33583
RightUpLeg  -48.7774 -16.7429 2.37746
RightLeg  120.033 28.3856 -19.647
RightFoot  -11.8149 0.202655 -12.7084
RightToes  -5.82073e-011 -3.18055e-015 -2.98177e-016
Spine  21.6973 0.134246 2.54714
Spine1  3.64214 2.60987 -9.98787
HEad  -0.81152 -0.749286 11.6651
LeftShoulder1  -3.88251e-019 9.70628e-020 -3.87848e-018
LeftArm  -4.64093 17.5978 -42.2393
LeftForeArm  -29.3206 -65.449 24.0333
LeftHand  -2.9325 -9.53209 23.4004
RightShoulder  1.1138 4.29415 5.70589
RightArm  0.146384 -29.3984 -5.50526
RightForeArm  -98.7416 67.4256 -106.525
RightHand  -6.01007 9.91563 -43.2533
LeftUpLeg  -58.651 5.91039 -9.5749
LeftLeg  116.61 -27.3705 23.5602
LeftFoot  -13.0948 -0.0523072 5.36846
LeftToes  1.2018e-011 -3.94675e-011 -1.33631e-011
292
root  27.3673 43.432 -35.7396 7.23798 15.8508 5.29975
RightUpLeg  -54.0755 -15.2976 6.95835
RightLeg  109.435 27.8648 -26.0046
RightFoot  -13.3983 0.036111 -14.439
RightToes  -5.82073e-011 -3.18055e-015 -2.98177e-016
Spine  24.6384 -0.498475 1.82128
Spine1  9.42184 2.69793 -11.2165
HEad  -5.50136 1.18027 11.1353
LeftShoulder1  -3.88251e-019 9.70628e-020 -3.87848e-018
LeftArm  -5.85558 19.7418 -46.1381
LeftForeArm  -22.869 -52.0209 13.5974
LeftHand  -2.7619 -8.26481 24.1096
RightShoulder  2.00226 5.77225 10.7721
RightArm  10.9066 -33.932 -10.6364
RightForeArm  -79.8779 67.9667 -91.0408
RightHand  -5.53688 9.91361 -40.112
LeftUpLeg  -59.7207 4.12957 -8.72763
LeftLeg  102.081 -23.0981 29.4372
LeftFoot  -18.958 0.195509 4.87669
LeftToes  1.2018e-011 -3.94675e-011 -1.33631e-011
293
root  28.5702 42.9798 -33.8721 6.09412 15.1336 4.65869
RightUpLeg  -55.6291 -12.5459 10.0566
RightLeg  95.7696 19.7334 -20.1778
RightFoot  -11.1727 0.16082 -9.68339
RightToes  -5.82073e-011 -3.18055e-015 -2.98177e-016
Spine  24.0041 -1.36096 3.16892
Spine1  14.7114 2.57469 -11.9728
HEad  -7.64913 2.49105 9.35848
LeftShoulder1  -3.88251e-019 9.70628e-020 -3.87848e-018
LeftArm  -10.0098 24.8783 -50.9629
LeftForeArm  -25.7198 -42.2393 9.06343
LeftHand  -2.66952 -7.11878 25.4429
RightShoulder  2.65215 6.48117 14.4235
RightArm  21.4203 -39.1773 -11.5792
RightForeArm  -60.597 66.571 -71.5087
RightHand  -4.89224 8.99318 -37.8847
LeftUpLeg  -58.6021 1.8539 -5.5829
LeftLeg  85.2575 -13.7819 27.333
LeftFoot  -20.5439 0.144996 3.03243
LeftToes  1.2018e-011 -3.94675e-011 -1.33631e-011
294
root  29.7758 42.3078 -31.852 7.00781 14.6532 3.42013
RightUpLeg  -54.3964 -10.3535 12.3997
RightLeg  76.1052 14.3742 -9.43298
RightFoot  -1.95354 0.300664 -3.18695
RightToes  -5.82073e-011 -3.18055e-015 -2.98177e-016
Spine  22.1392 -1.93221 4.78408
Spine1  16.8313 2.34316 -12.4949
HEad  -8.16887 2.88675 6.88655
LeftShoulder1  -3.88251e-019 9.70628e-020 -3.87848e-018
LeftArm  -16.9568 34.8344 -57.1846
LeftForeArm  -32.5669 -38.7795 7.49454
LeftHand  -2.59919 -6.22669 26.7616
RightShoulder  3.35737 7.16608 18.118
RightArm  30.9959 -45.3026 -12.4129
RightForeArm  -49.3474 63.4581 -55.955
RightHand  -4.35692 7.79323 -36.8793
LeftUpLeg  -55.3059 0.616338 -2.91239
LeftLeg  64.5323 -5.50611 21.1644
LeftFoot  -21.9382 0.047736 1.45513
LeftToes  1.2018e-011 -3.94675e-011 -1.33631e-011
295
root  31.0106 41.0162 -29.6573 8.06915 14.1584 2.99429
RightUpLeg  -49.8678 -10.1372 13.8163
RightLeg  53.1488 15.6923 -1.03434
RightFoot  8.6787 0.277801 -1.3522
RightToes  -5.82073e-011 -3.18055e-015 -2.98177e-016
Spine  20.1724 -1.98439 5.2732
Spine1  16.954 2.23689 -12.4082
HEad  -8.46819 2.37828 4.57551
LeftShoulder1  -3.88251e-019 9.70628e-020 -3.87848e-018
LeftArm  -24.7637 48.0457 -65.1355
LeftForeArm  -39.0401 -40.0125 7.57419
LeftHand  -1.92055 -4.3072 23.5657
RightShoulder  4.42625 8.16154 23.1549
RightArm  39.7546 -50.9448 -17.7442
RightForeArm  -43.655 60.039 -46.0923
RightHand  -4.21556 7.38048 -36.8223
LeftUpLeg  -48.8983 -0.0763559 -1.62604
LeftLeg  41.2827 -1.57421 12.5955
LeftFoot  -24.1681 -0.156625 -0.967812
LeftToes  1.2018e-011 -3.94675e-011 -1.33631e-011
296
root  32.3299 38.7465 -27.3101 8.29767 13.7699 4.02038
RightUpLeg  -45.2397 -10.2433 13.1144
RightLeg  38.6667 19.4327 2.65859
RightFoot  10.7418 1.1755 -6.05682
RightToes  -5.82073e-011 -3.18055e-015 -2.98177e-016
Spine  18.3511 -1.67406 4.44406
Spine1  16.3468 2.05138 -11.3705
HEad  -10.2185 1.25292 2.70277
LeftShoulder1  -3.88251e-019 9.70628e-020 -3.87848e-018
LeftArm  -33.0742 61.4377 -74.902
LeftForeArm  -41.478 -42.1554 8.19129
LeftHand  -0.790579 -2.23795 12.5799
RightShoulder  5.61963 9.05419 28.4983
RightArm  47.6292 -55.5289 -28.3535
RightForeArm  -38.3087 57.2791 -40.6379
RightHand  -3.93405 6.96839 -35.5702
LeftUpLeg  -43.1599 -2.07433 -1.44627
LeftLeg  24.9546 -2.77281 6.37794
LeftFoot  -20.4169 -0.37092 -5.48207
LeftToes  1.2018e-011 -3.94675e-011 -1.33631e-011
297
root  33.5515 36.2526 -25.3019 7.84766 13.6538 5.6936
RightUpLeg  -45.3154 -6.89642 9.65527
RightLeg  41.0142 17.2848 0.266525
RightFoot  1.3478 1.69772 -13.5088
RightToes  -5.82073e-011 -3.18055e-015 -2.98177e-016
Spine  18.8678 -1.40324 2.93877
Spine1  13.8519 1.47163 -9.66517
HEad  -14.6811 0.0319398 1.41837
LeftShoulder1  -3.88251e-019 9.70628e-020 -3.87848e-018
LeftArm  -42.9898 71.813 -87.0656
LeftForeArm  -38.9326 -41.3573 8.04756
LeftHand  0.00764876 -2.06407 0.461267
RightShoulder  6.57843 9.66067 32.4862
RightArm  52.2243 -59.2428 -38.6158
RightForeArm  -32.5736 54.5959 -36.476
RightHand  -3.2693 5.66803 -33.1518
LeftUpLeg  -43.8814 -4.4031 -2.42201
LeftLeg  25.9898 -4.26546 5.90462
LeftFoot  -9.2609 0.142332 -6.84033
LeftToes  1.2018e-011 -3.94675e-011 -1.33631e-011
298
root  34.6291 33.9757 -23.7517 6.53629 13.6029 6.69578
RightUpLeg  -49.3025 -2.94751 6.70404
RightLeg  55.5226 12.5502 -6.35854
RightFoot  -11.4268 0.347578 -15.3247
RightToes  -5.82073e-011 -3.18055e-015 -2.98177e-016
Spine  23.3872 -1.28039 1.73005
Spine1  8.54761 0.693517 -7.85488
HEad  -21.3439 -1.28506 0.914031
LeftShoulder1  -3.88251e-019 9.70628e-020 -3.87848e-018
LeftArm  -47.4456 76.6601 -95.632
LeftForeArm  -33.3112 -34.9279 6.19251
LeftHand  0.251392 -2.77935 -3.57509
RightShoulder  7.69858 10.4678 36.541
RightArm  46.818 -60.5645 -37.7076
RightForeArm  -31.9158 49.1459 -29.2203
RightHand  -2.2651 2.83337 -30.9038
LeftUpLeg  -50.4737 -3.98261 -4.70652
LeftLeg  41.6876 -6.95916 7.34053
LeftFoot  0.394311 0.344924 -2.75493
LeftToes  1.2018e-011 -3.94675e-011 -1.33631e-011
299
root  35.6366 32.1657 -22.35 4.57187 12.9204 6.24176
RightUpLeg  -52.5121 -1.34791 6.37239
RightLeg  69.693 12.4686 -11.76
RightFoot  -18.6591 -0.471005 -10.7327
RightToes  -5.82073e-011 -3.18055e-015 -2.98177e-016
Spine  27.6676 -1.07811 1.93348
Spine1  6.13076 0.239405 -5.86631
HEad  -29.2539 -2.52048 0.732852
LeftShoulder1  -3.88251e-019 9.70628e-020 -3.87848e-018
LeftArm  -39.9185 73.9022 -90.1108
LeftForeArm  -22.8227 -24.0487 2.06595
LeftHand  0.0650614 -0.675355 -1.1306
RightShoulder  8.46652 10.9496 39.2092
RightArm  28.5436 -58.2749 -18.1532
RightForeArm  -40.8941 38.7414 -19.5919
RightHand  -0.838086 -2.22606 -29.5964
LeftUpLeg  -55.5658 -2.37312 -5.9905
LeftLeg  57.454 -9.08554 8.76281
LeftFoot  -1.08931 -0.138934 1.47617
LeftToes  1.2018e-011 -3.94675e-011 -1.33631e-011
300
root  36.4266 31.5461 -21.2281 3.41452 11.7376 5.67993
RightUpLeg  -53.0937 -1.19898 6.28634
RightLeg  75.8674 13.7181 -12.4315
RightFoot  -19.2066 -0.322692 -7.2539
RightToes  -5.82073e-011 -3.18055e-015 -2.98177e-016
Spine  29.5926 -0.829421 2.51728
Spine1  5.72518 0.247178 -4.53816
HEad  -32.4458 -3.81178 1.67834
LeftShoulder1  -3.88251e-019 9.70628e-020 -3.87848e-018
LeftArm  -33.577 67.0643 -78.826
LeftForeArm  -4.67717 -13.7364 -3.55716
LeftHand  0.0108771 2.9219 -1.95569
RightShoulder  8.97271 11.2145 40.9971
RightArm  13.6439 -49.4058 2.34805
RightForeArm  -52.1633 26.376 -11.7254
RightHand  0.235828 -6.38871 -29.3248
LeftUpLeg  -55.9353 -1.20638 -6.59913
LeftLeg  64.5369 -9.68943 10.1895
LeftFoot  -8.60786 -0.140614 2.58191
LeftToes  1.2018e-011 -3.94675e-011 -1.33631e-011
301
root  37.0202 31.7189 -20.3712 3.6601 10.0517 5.58208
RightUpLeg  -52.2121 -1.13837 5.54096
RightLeg  76.7403 14.1896 -10.642
RightFoot  -19.0653 -0.283359 -6.74286
RightToes  -5.82073e-011 -3.18055e-015 -2.98177e-016
Spine  29.8132 -0.385232 3.44252
Spine1  4.36716 0.995452 -4.94398
HEad  -31.3686 -5.89905 1.92264
LeftShoulder1  -3.88251e-019 9.70628e-020 -3.87848e-018
LeftArm  -23.3181 59.778 -70.143
LeftForeArm  4.45075 -9.45587 -4.51
LeftHand  0.129432 2.68477 -6.57625
RightShoulder  8.98145 11.2089 41.0445
RightArm  9.09429 -41.5425 14.7528
RightForeArm  -52.009 20.5656 -8.49291
RightHand  0.0643219 -5.70575 -28.0083
LeftUpLeg  -54.4597 -0.225514 -7.29474
LeftLeg  65.3934 -9.46479 11.2288
LeftFoot  -12.8441 -0.033891 1.46698
LeftToes  1.2018e-011 -3.94675e-011 -1.33631e-011
